<mxfile host="app.diagrams.net" agent="Mozilla/5.0 (Macintosh; Intel Mac OS X 10_15_7) AppleWebKit/537.36 (KHTML, like Gecko) Chrome/129.0.0.0 Safari/537.36" version="24.7.17">
  <diagram name="第 1 页" id="ZwtGo0Ra21_Wfgm8KA-H">
    <mxGraphModel dx="1434" dy="702" grid="1" gridSize="10" guides="1" tooltips="1" connect="1" arrows="1" fold="1" page="1" pageScale="1" pageWidth="2339" pageHeight="3300" math="0" shadow="0">
      <root>
        <mxCell id="0" />
        <mxCell id="1" parent="0" />
        <mxCell id="k1dHxfXZ2eATXNSB_S6I-24" value="" style="edgeStyle=orthogonalEdgeStyle;rounded=0;orthogonalLoop=1;jettySize=auto;html=1;" edge="1" parent="1" source="k1dHxfXZ2eATXNSB_S6I-1" target="k1dHxfXZ2eATXNSB_S6I-23">
          <mxGeometry relative="1" as="geometry" />
        </mxCell>
        <mxCell id="k1dHxfXZ2eATXNSB_S6I-1" value="input = &quot;123abc&quot;" style="ellipse;whiteSpace=wrap;html=1;" vertex="1" parent="1">
          <mxGeometry x="250" y="290" width="120" height="80" as="geometry" />
        </mxCell>
        <mxCell id="k1dHxfXZ2eATXNSB_S6I-10" value="" style="edgeStyle=orthogonalEdgeStyle;rounded=0;orthogonalLoop=1;jettySize=auto;html=1;" edge="1" parent="1" source="k1dHxfXZ2eATXNSB_S6I-7" target="k1dHxfXZ2eATXNSB_S6I-9">
          <mxGeometry relative="1" as="geometry" />
        </mxCell>
        <mxCell id="k1dHxfXZ2eATXNSB_S6I-7" value="root-&amp;gt;rule1: /\d+/" style="whiteSpace=wrap;html=1;" vertex="1" parent="1">
          <mxGeometry x="600" y="300" width="120" height="60" as="geometry" />
        </mxCell>
        <mxCell id="k1dHxfXZ2eATXNSB_S6I-19" value="" style="edgeStyle=orthogonalEdgeStyle;rounded=0;orthogonalLoop=1;jettySize=auto;html=1;" edge="1" parent="1" source="k1dHxfXZ2eATXNSB_S6I-9" target="k1dHxfXZ2eATXNSB_S6I-18">
          <mxGeometry relative="1" as="geometry" />
        </mxCell>
        <mxCell id="k1dHxfXZ2eATXNSB_S6I-20" value="true" style="edgeLabel;html=1;align=center;verticalAlign=middle;resizable=0;points=[];" vertex="1" connectable="0" parent="k1dHxfXZ2eATXNSB_S6I-19">
          <mxGeometry x="-0.1714" y="-3" relative="1" as="geometry">
            <mxPoint y="-3" as="offset" />
          </mxGeometry>
        </mxCell>
        <mxCell id="k1dHxfXZ2eATXNSB_S6I-22" value="" style="edgeStyle=orthogonalEdgeStyle;rounded=0;orthogonalLoop=1;jettySize=auto;html=1;" edge="1" parent="1" source="k1dHxfXZ2eATXNSB_S6I-9" target="k1dHxfXZ2eATXNSB_S6I-21">
          <mxGeometry relative="1" as="geometry" />
        </mxCell>
        <mxCell id="k1dHxfXZ2eATXNSB_S6I-26" value="false" style="edgeLabel;html=1;align=center;verticalAlign=middle;resizable=0;points=[];" vertex="1" connectable="0" parent="k1dHxfXZ2eATXNSB_S6I-22">
          <mxGeometry x="0.02" relative="1" as="geometry">
            <mxPoint as="offset" />
          </mxGeometry>
        </mxCell>
        <mxCell id="k1dHxfXZ2eATXNSB_S6I-9" value="rule1.test(input)" style="rhombus;whiteSpace=wrap;html=1;" vertex="1" parent="1">
          <mxGeometry x="820" y="280" width="100" height="100" as="geometry" />
        </mxCell>
        <mxCell id="k1dHxfXZ2eATXNSB_S6I-28" value="" style="edgeStyle=orthogonalEdgeStyle;rounded=0;orthogonalLoop=1;jettySize=auto;html=1;" edge="1" parent="1" source="k1dHxfXZ2eATXNSB_S6I-18" target="k1dHxfXZ2eATXNSB_S6I-27">
          <mxGeometry relative="1" as="geometry" />
        </mxCell>
        <mxCell id="k1dHxfXZ2eATXNSB_S6I-18" value="action:&amp;nbsp;&lt;br&gt;token: number&lt;br&gt;next: word&lt;br&gt;&lt;div&gt;&lt;br&gt;&lt;/div&gt;" style="whiteSpace=wrap;html=1;" vertex="1" parent="1">
          <mxGeometry x="990" y="300" width="120" height="60" as="geometry" />
        </mxCell>
        <mxCell id="k1dHxfXZ2eATXNSB_S6I-21" value="end" style="whiteSpace=wrap;html=1;" vertex="1" parent="1">
          <mxGeometry x="810" y="480" width="120" height="60" as="geometry" />
        </mxCell>
        <mxCell id="k1dHxfXZ2eATXNSB_S6I-25" style="edgeStyle=orthogonalEdgeStyle;rounded=0;orthogonalLoop=1;jettySize=auto;html=1;exitX=1;exitY=0.5;exitDx=0;exitDy=0;entryX=0;entryY=0.5;entryDx=0;entryDy=0;" edge="1" parent="1" source="k1dHxfXZ2eATXNSB_S6I-23" target="k1dHxfXZ2eATXNSB_S6I-7">
          <mxGeometry relative="1" as="geometry" />
        </mxCell>
        <mxCell id="k1dHxfXZ2eATXNSB_S6I-23" value="root" style="ellipse;whiteSpace=wrap;html=1;" vertex="1" parent="1">
          <mxGeometry x="450" y="290" width="80" height="80" as="geometry" />
        </mxCell>
        <mxCell id="k1dHxfXZ2eATXNSB_S6I-30" value="" style="edgeStyle=orthogonalEdgeStyle;rounded=0;orthogonalLoop=1;jettySize=auto;html=1;" edge="1" parent="1" source="k1dHxfXZ2eATXNSB_S6I-27" target="k1dHxfXZ2eATXNSB_S6I-29">
          <mxGeometry relative="1" as="geometry" />
        </mxCell>
        <mxCell id="k1dHxfXZ2eATXNSB_S6I-27" value="word" style="ellipse;whiteSpace=wrap;html=1;" vertex="1" parent="1">
          <mxGeometry x="1010" y="430" width="80" height="80" as="geometry" />
        </mxCell>
        <mxCell id="k1dHxfXZ2eATXNSB_S6I-32" value="" style="edgeStyle=orthogonalEdgeStyle;rounded=0;orthogonalLoop=1;jettySize=auto;html=1;" edge="1" parent="1" source="k1dHxfXZ2eATXNSB_S6I-29" target="k1dHxfXZ2eATXNSB_S6I-31">
          <mxGeometry relative="1" as="geometry" />
        </mxCell>
        <mxCell id="k1dHxfXZ2eATXNSB_S6I-29" value="word-&amp;gt;rule1:&amp;nbsp;/\d/" style="whiteSpace=wrap;html=1;" vertex="1" parent="1">
          <mxGeometry x="990" y="600" width="120" height="60" as="geometry" />
        </mxCell>
        <mxCell id="k1dHxfXZ2eATXNSB_S6I-34" value="" style="edgeStyle=orthogonalEdgeStyle;rounded=0;orthogonalLoop=1;jettySize=auto;html=1;" edge="1" parent="1" source="k1dHxfXZ2eATXNSB_S6I-31" target="k1dHxfXZ2eATXNSB_S6I-33">
          <mxGeometry relative="1" as="geometry" />
        </mxCell>
        <mxCell id="k1dHxfXZ2eATXNSB_S6I-35" value="false" style="edgeLabel;html=1;align=center;verticalAlign=middle;resizable=0;points=[];" vertex="1" connectable="0" parent="k1dHxfXZ2eATXNSB_S6I-34">
          <mxGeometry x="0.0571" y="2" relative="1" as="geometry">
            <mxPoint y="-2" as="offset" />
          </mxGeometry>
        </mxCell>
        <mxCell id="k1dHxfXZ2eATXNSB_S6I-36" style="edgeStyle=orthogonalEdgeStyle;rounded=0;orthogonalLoop=1;jettySize=auto;html=1;exitX=1;exitY=0.5;exitDx=0;exitDy=0;entryX=0.5;entryY=0;entryDx=0;entryDy=0;" edge="1" parent="1" source="k1dHxfXZ2eATXNSB_S6I-31" target="k1dHxfXZ2eATXNSB_S6I-23">
          <mxGeometry relative="1" as="geometry">
            <Array as="points">
              <mxPoint x="1150" y="780" />
              <mxPoint x="1150" y="250" />
              <mxPoint x="490" y="250" />
            </Array>
          </mxGeometry>
        </mxCell>
        <mxCell id="k1dHxfXZ2eATXNSB_S6I-37" value="true" style="edgeLabel;html=1;align=center;verticalAlign=middle;resizable=0;points=[];" vertex="1" connectable="0" parent="k1dHxfXZ2eATXNSB_S6I-36">
          <mxGeometry x="-0.425" y="-3" relative="1" as="geometry">
            <mxPoint as="offset" />
          </mxGeometry>
        </mxCell>
        <mxCell id="k1dHxfXZ2eATXNSB_S6I-31" value="rule1.test(input)" style="rhombus;whiteSpace=wrap;html=1;" vertex="1" parent="1">
          <mxGeometry x="1000" y="730" width="100" height="100" as="geometry" />
        </mxCell>
        <mxCell id="k1dHxfXZ2eATXNSB_S6I-39" value="" style="edgeStyle=orthogonalEdgeStyle;rounded=0;orthogonalLoop=1;jettySize=auto;html=1;" edge="1" parent="1" source="k1dHxfXZ2eATXNSB_S6I-33" target="k1dHxfXZ2eATXNSB_S6I-38">
          <mxGeometry relative="1" as="geometry" />
        </mxCell>
        <mxCell id="k1dHxfXZ2eATXNSB_S6I-33" value="word-&amp;gt;rule2:&amp;nbsp;/[^\d]+/" style="whiteSpace=wrap;html=1;" vertex="1" parent="1">
          <mxGeometry x="810" y="750" width="120" height="60" as="geometry" />
        </mxCell>
        <mxCell id="k1dHxfXZ2eATXNSB_S6I-41" value="true" style="edgeStyle=orthogonalEdgeStyle;rounded=0;orthogonalLoop=1;jettySize=auto;html=1;" edge="1" parent="1" source="k1dHxfXZ2eATXNSB_S6I-38" target="k1dHxfXZ2eATXNSB_S6I-40">
          <mxGeometry relative="1" as="geometry" />
        </mxCell>
        <mxCell id="k1dHxfXZ2eATXNSB_S6I-43" style="edgeStyle=orthogonalEdgeStyle;rounded=0;orthogonalLoop=1;jettySize=auto;html=1;exitX=0.5;exitY=0;exitDx=0;exitDy=0;entryX=0;entryY=0.5;entryDx=0;entryDy=0;" edge="1" parent="1" source="k1dHxfXZ2eATXNSB_S6I-38" target="k1dHxfXZ2eATXNSB_S6I-29">
          <mxGeometry relative="1" as="geometry" />
        </mxCell>
        <mxCell id="k1dHxfXZ2eATXNSB_S6I-44" value="false" style="edgeLabel;html=1;align=center;verticalAlign=middle;resizable=0;points=[];" vertex="1" connectable="0" parent="k1dHxfXZ2eATXNSB_S6I-43">
          <mxGeometry x="0.125" y="-2" relative="1" as="geometry">
            <mxPoint x="35" y="-3" as="offset" />
          </mxGeometry>
        </mxCell>
        <mxCell id="k1dHxfXZ2eATXNSB_S6I-38" value="rule2.test(input)" style="rhombus;whiteSpace=wrap;html=1;" vertex="1" parent="1">
          <mxGeometry x="640" y="730" width="100" height="100" as="geometry" />
        </mxCell>
        <mxCell id="k1dHxfXZ2eATXNSB_S6I-40" value="action:&amp;nbsp;&lt;br&gt;token: string" style="whiteSpace=wrap;html=1;" vertex="1" parent="1">
          <mxGeometry x="450" y="750" width="120" height="60" as="geometry" />
        </mxCell>
      </root>
    </mxGraphModel>
  </diagram>
</mxfile>
